Coordinates
version=1
nRows=10
nColumns=46
inDegrees=yes

Units are S.I. units (second, meters, Newtons, ...)
Angles are in degrees.

endheader
time	pelvis_tilt	pelvis_list	pelvis_rotation	pelvis_tx	pelvis_ty	pelvis_tz	bb_angle	bb_tx	bb_ty	bb_tz	hip_flexion_r	hip_adduction_r	hip_rotation_r	knee_angle_r	knee_angle_r_beta	ankle_angle_r	subtalar_angle_r	mtp_angle_r	crank_angle_r	hip_flexion_l	hip_adduction_l	hip_rotation_l	knee_angle_l	knee_angle_l_beta	ankle_angle_l	subtalar_angle_l	mtp_angle_l	crank_angle_l	lumbar_extension	lumbar_bending	lumbar_rotation	arm_flex_r	arm_add_r	arm_rot_r	elbow_flex_r	pro_sup_r	wrist_flex_r	wrist_dev_r	arm_flex_l	arm_add_l	arm_rot_l	elbow_flex_l	pro_sup_l	wrist_flex_l	wrist_dev_l
      7.50500000	    -21.08173492	      5.28026627	     14.85516554	      0.37181716	      1.21611514	     -0.23181135	      0.00000000	      0.50000000	      0.00000000	      0.25000000	     34.12672721	    -11.37132453	      1.71616185	     58.95213161	      1.02890880	    -38.68893467	     -5.37662852	      0.00000000	      0.00000000	     58.16973883	      9.81705684	      3.71542018	     72.21918289	      1.26046252	     10.71884901	     -7.45122738	      0.00000000	      0.00000000	    -67.15129144	      5.81603761	     -3.48481054	     31.52122500	    -13.01423133	     -1.43939545	    104.86231759	     51.07420667	      0.00000000	      0.00000000	     47.96926255	    -11.88908947	     22.56922468	     90.28964626	     55.91850211	      0.00000000	      0.00000000
      7.51000000	    -20.82170041	      4.79625363	     15.31671820	      0.37216272	      1.21651044	     -0.23183513	      0.00000000	      0.50000000	      0.00000000	      0.25000000	     34.71775082	    -11.03168668	      1.32795022	     60.93765984	      1.06356280	    -38.68917710	     -5.42600917	      0.00000000	      0.00000000	     56.86206432	      9.48564549	      4.23806065	     69.94847012	      1.22083111	      9.73110177	     -6.26498669	      0.00000000	      0.00000000	    -67.45477083	      6.48508974	     -3.55832798	     31.91014142	    -12.79122167	     -1.38222232	    104.80319943	     51.07204090	      0.00000000	      0.00000000	     47.93190438	    -12.18129305	     22.34522049	     90.78565684	     55.97115536	      0.00000000	      0.00000000
      7.51500000	    -20.62390155	      4.23855822	     15.58177222	      0.37252480	      1.21652349	     -0.23183942	      0.00000000	      0.50000000	      0.00000000	      0.25000000	     35.39335782	    -10.54082006	      1.02679750	     62.99068029	      1.09939477	    -38.38973385	     -5.78505355	      0.00000000	      0.00000000	     55.60784843	      8.95815624	      4.58773875	     67.66558129	      1.18098718	      8.89833527	     -5.61002471	      0.00000000	      0.00000000	    -67.65135489	      7.31944625	     -5.41659983	     33.75348501	    -10.98002520	      0.88212063	    102.81083518	     51.03565576	      0.00000000	      0.00000000	     46.03319661	    -14.55759133	     20.15974196	     93.90067838	     56.19985085	      0.00000000	      0.00000000
      7.52000000	    -20.58605767	      3.52832900	     15.70680050	      0.37259717	      1.21578805	     -0.23157307	      0.00000000	      0.50000000	      0.00000000	      0.25000000	     36.33438355	     -9.86597371	      0.71901683	     65.19960931	      1.13794785	    -37.65908876	     -6.51230885	      0.00000000	      0.00000000	     54.61935466	      8.22683575	      5.05112265	     65.58313756	      1.14464168	      8.23313116	     -4.57926049	      0.00000000	      0.00000000	    -67.55487947	      7.83828000	     -5.56908521	     34.30071148	    -10.46238940	      1.69261446	    102.14114446	     51.06899556	      0.00000000	      0.00000000	     45.34566437	    -14.99453825	     19.16028319	     94.61600613	     56.15524129	      0.00000000	      0.00000000
      7.52500000	    -20.52821952	      2.90703110	     15.74749787	      0.37271546	      1.21494611	     -0.23132919	      0.00000000	      0.50000000	      0.00000000	      0.25000000	     37.25094222	     -9.28467558	      0.41823637	     67.48385279	      1.17781542	    -36.44343826	     -7.20456648	      0.00000000	      0.00000000	     53.53944470	      7.54566422	      5.33482628	     63.38112669	      1.10620934	      7.07676934	     -4.02990192	      0.00000000	      0.00000000	    -67.49290567	      8.18898663	     -5.21700963	     34.40023295	    -10.29381058	      1.88654699	    102.05792898	     51.08090702	      0.00000000	      0.00000000	     45.19797904	    -15.15229315	     19.06351805	     94.70769913	     56.15596205	      0.00000000	      0.00000000
      7.53000000	    -20.58148978	      2.36110931	     15.74544338	      0.37268531	      1.21365739	     -0.23122133	      0.00000000	      0.50000000	      0.00000000	      0.25000000	     38.33522021	     -8.83073984	      0.14415656	     69.92626196	      1.22044350	    -34.75592344	     -7.99645130	      0.00000000	      0.00000000	     52.50851767	      6.95040315	      5.53309467	     61.11052138	      1.06657981	      5.89097194	     -3.78212879	      0.00000000	      0.00000000	    -67.27629115	      8.45662352	     -5.00391536	     34.48109816	    -10.06838752	      2.24472095	    101.88563186	     51.09703614	      0.00000000	      0.00000000	     44.92311086	    -15.37299411	     18.88305478	     94.86583656	     56.15796176	      0.00000000	      0.00000000
      7.53500000	    -20.68193437	      1.84353075	     15.60129856	      0.37273525	      1.21209850	     -0.23095795	      0.00000000	      0.50000000	      0.00000000	      0.25000000	     39.49742068	     -8.34844038	     -0.04093225	     72.40128766	      1.26364085	    -32.68336539	     -8.78631147	      0.00000000	      0.00000000	     51.45750311	      6.29605983	      5.67686241	     58.86265758	      1.02734718	      4.80208069	     -3.62420506	      0.00000000	      0.00000000	    -66.94324212	      8.63107860	     -4.86651490	     34.58148490	     -9.80199011	      2.69876679	    101.60680058	     51.10588668	      0.00000000	      0.00000000	     44.51904031	    -15.67007335	     18.61252165	     95.07952753	     56.15903862	      0.00000000	      0.00000000
      7.54000000	    -20.88639392	      1.45753080	     15.39294071	      0.37278335	      1.21026288	     -0.23094013	      0.00000000	      0.50000000	      0.00000000	      0.25000000	     40.81664482	     -8.07857605	     -0.08548494	     74.92260972	      1.30764622	    -30.34968522	     -8.76471884	      0.00000000	      0.00000000	     50.35746791	      5.80003007	      5.77898938	     56.50057217	      0.98612101	      3.68961152	     -3.98256860	      0.00000000	      0.00000000	    -66.44039289	      8.90159771	     -6.61601003	     36.03092328	     -8.31149593	      5.23029353	     99.26854634	     51.03060385	      0.00000000	      0.00000000	     42.45656055	    -17.52569389	     16.33401124	     97.15193071	     56.19576549	      0.00000000	      0.00000000
      7.54500000	    -20.90589028	      0.81786199	     15.09052712	      0.37291771	      1.20848794	     -0.23056004	      0.00000000	      0.50000000	      0.00000000	      0.25000000	     41.93547402	     -7.40897222	     -0.31110540	     77.30291668	      1.34919042	    -28.27705980	     -9.69664162	      0.00000000	      0.00000000	     49.15824108	      4.92307915	      5.97927777	     54.28227321	      0.94740439	      2.95023925	     -3.55393599	      0.00000000	      0.00000000	    -66.18762079	      9.02536139	     -6.14034238	     35.99733414	     -8.17200826	      5.48583476	     99.13532891	     51.04214689	      0.00000000	      0.00000000	     42.05819577	    -17.65820111	     16.18574295	     97.20839106	     56.18667965	      0.00000000	      0.00000000
      7.55000000	    -20.97135508	      0.24983293	     14.69494890	      0.37314676	      1.20652205	     -0.23012834	      0.00000000	      0.50000000	      0.00000000	      0.25000000	     43.13292605	     -6.76108386	     -0.41953474	     79.69653520	      1.39096694	    -25.98403154	    -10.35530736	      0.00000000	      0.00000000	     47.90869174	      4.05108553	      6.08505135	     52.00182875	      0.90760313	      2.13811774	     -3.24875336	      0.00000000	      0.00000000	    -65.80324902	      9.05661701	     -5.78016908	     35.94474895	     -8.01954077	      5.82345490	     98.94270221	     51.05377558	      0.00000000	      0.00000000	     41.52762119	    -17.82790961	     15.96401562	     97.29120051	     56.17368620	      0.00000000	      0.00000000
